<?xml version="1.0" encoding="utf-8"?><!-- Uploaded to: SVG Repo, www.svgrepo.com, Generator: SVG Repo Mixer Tools -->
<svg width="800px" height="800px" viewBox="0 0 24 24" fill="none" xmlns="http://www.w3.org/2000/svg">
<path d="M15.2685 11.3076C14.9169 11.0248 14.5923 10.7795 14.2848 10.5693C13.3451 9.92712 12.672 9.68977 12 9.68977C11.328 9.68977 10.6549 9.92712 9.71521 10.5693C8.75213 11.2275 7.62138 12.2301 6.02073 13.6529L3.66436 15.7474C3.25158 16.1143 2.61951 16.0771 2.25259 15.6644C1.88567 15.2516 1.92285 14.6195 2.33564 14.2526L4.74407 12.1118C6.28074 10.7458 7.50586 9.65678 8.58672 8.91809C9.70321 8.15504 10.771 7.68977 12 7.68977C13.229 7.68977 14.2968 8.15504 15.4133 8.91809C15.8434 9.21204 16.2963 9.56146 16.7827 9.96172L15.2685 11.3076Z" fill="#000000"/>
<path d="M18.3151 13.9514L20.3356 15.7474C20.7484 16.1143 21.3805 16.0771 21.7474 15.6644C22.1143 15.2516 22.0771 14.6195 21.6644 14.2526L19.8203 12.6134L18.3151 13.9514Z" fill="#000000"/>
<path d="M5.6224 9.99307L3.66436 8.25259C3.25158 7.88567 2.61951 7.92285 2.25259 8.33564C1.88567 8.74842 1.92285 9.38049 2.33564 9.74741L4.1172 11.331L5.6224 9.99307Z" fill="#000000"/>
<path d="M7.15251 13.9848C7.6635 14.4075 8.13756 14.7749 8.58672 15.0819C9.70321 15.845 10.771 16.3102 12 16.3102C13.229 16.3102 14.2968 15.845 15.4133 15.0819C16.4941 14.3432 17.7193 13.2542 19.2559 11.8882L21.6644 9.74741C22.0771 9.38049 22.1143 8.74842 21.7474 8.33564C21.3805 7.92285 20.7484 7.88567 20.3356 8.25259L17.9793 10.3471C16.3786 11.7699 15.2479 12.7725 14.2848 13.4307C13.3451 14.0729 12.672 14.3102 12 14.3102C11.328 14.3102 10.6549 14.0729 9.71521 13.4307C9.38867 13.2075 9.04286 12.9448 8.66599 12.6395L7.15251 13.9848Z" fill="#000000"/>
<path fill-rule="evenodd" clip-rule="evenodd" d="M21.7474 8.33564C22.1143 8.74842 22.0771 9.38049 21.6644 9.74741L19.2559 11.8882C17.7193 13.2542 16.4941 14.3432 15.4133 15.0819C14.2968 15.845 13.229 16.3102 12 16.3102C10.9247 16.3102 9.97074 15.9539 8.99698 15.3497C8.52769 15.0585 8.38332 14.442 8.6745 13.9728C8.96569 13.5035 9.58218 13.3591 10.0515 13.6503C10.8187 14.1264 11.4086 14.3102 12 14.3102C12.672 14.3102 13.3451 14.0729 14.2848 13.4307C15.2479 12.7725 16.3786 11.7699 17.9793 10.3471L20.3356 8.25259C20.7484 7.88567 21.3805 7.92285 21.7474 8.33564Z" fill="#000000"/>
</svg>